HIERARCHY
ROOT Hips
{
	OFFSET 0.000000 0.000000 0.000000
	CHANNELS 6 Xposition Yposition Zposition Zrotation Yrotation Xrotation 
	JOINT LeftUpLeg_virtual
	{
		OFFSET 0.000000 0.000000 0.000000
		CHANNELS 3 Zrotation Yrotation Xrotation
		JOINT LeftUpLeg
		{
			OFFSET 8.479694 -4.795517 -0.379053
			CHANNELS 3 Zrotation Yrotation Xrotation
			JOINT LeftLeg
			{
				OFFSET 0.485052 -32.551468 0.112863
				CHANNELS 3 Zrotation Yrotation Xrotation
				JOINT LeftFoot
				{
					OFFSET 0.438033 -32.635670 -3.012641
					CHANNELS 3 Zrotation Yrotation Xrotation
					JOINT LeftToeBase
					{
						OFFSET 0.970169 -13.225353 11.864223
						CHANNELS 3 Zrotation Yrotation Xrotation
						End Site
						{
							OFFSET 0.000000 0.000000 0.000000
						}
					}
				}
			}
		}
	}
	JOINT RightUpLeg_virtual
	{
		OFFSET 0.000000 0.000000 0.000000
		CHANNELS 3 Zrotation Yrotation Xrotation
		JOINT RightUpLeg
		{
			OFFSET -8.479694 -4.795517 -0.379053
			CHANNELS 3 Zrotation Yrotation Xrotation
			JOINT RightLeg
			{
				OFFSET -0.484100 -32.551483 0.112903
				CHANNELS 3 Zrotation Yrotation Xrotation
				JOINT RightFoot
				{
					OFFSET -0.438985 -32.635651 -3.012681
					CHANNELS 3 Zrotation Yrotation Xrotation
					JOINT RightToeBase
					{
						OFFSET -0.970169 -13.225354 11.864223
						CHANNELS 3 Zrotation Yrotation Xrotation
						End Site
						{
							OFFSET 0.000000 0.000000 0.000000
						}
					}
				}
			}
		}
	}
	JOINT Spine_virtual
	{
		OFFSET 0.000000 0.000000 0.000000
		CHANNELS 3 Zrotation Yrotation Xrotation
		JOINT Spine
		{
			OFFSET 0.000000 7.722015 1.166203
			CHANNELS 3 Zrotation Yrotation Xrotation
			JOINT Spine1
			{
				OFFSET 0.000000 12.024086 0.248766
				CHANNELS 3 Zrotation Yrotation Xrotation
				JOINT Spine2
				{
					OFFSET -0.000000 11.503036 -0.491240
					CHANNELS 3 Zrotation Yrotation Xrotation
					JOINT Neck_virtual
					{
						OFFSET 0.000000 0.000000 0.000000
						CHANNELS 3 Zrotation Yrotation Xrotation
						JOINT Neck
						{
							OFFSET 0.000000 18.430687 -3.123054
							CHANNELS 3 Zrotation Yrotation Xrotation
							JOINT Head
							{
								OFFSET -0.000000 9.051071 1.034021
								CHANNELS 3 Zrotation Yrotation Xrotation
								End Site
								{
									OFFSET 0.000000 0.000000 0.000000
								}
							}
						}
					}
					JOINT LeftShoulder_virtual
					{
						OFFSET 0.000000 0.000000 0.000000
						CHANNELS 3 Zrotation Yrotation Xrotation
						JOINT LeftShoulder
						{
							OFFSET 6.197824 13.665230 -4.064723
							CHANNELS 3 Zrotation Yrotation Xrotation
							JOINT LeftArm
							{
								OFFSET 7.778132 -0.187073 -1.709282
								CHANNELS 3 Zrotation Yrotation Xrotation
								JOINT LeftForeArm
								{
									OFFSET 21.954697 0.000000 -2.041093
									CHANNELS 3 Zrotation Yrotation Xrotation
									JOINT LeftHand
									{
										OFFSET 22.992908 0.000000 -0.870901
										CHANNELS 3 Zrotation Yrotation Xrotation
										End Site
										{
											OFFSET 0.000000 0.000000 0.000000
										}
									}
								}
							}
						}
					}
					JOINT RightShoulder_virtual
					{
						OFFSET 0.000000 0.000000 0.000000
						CHANNELS 3 Zrotation Yrotation Xrotation
						JOINT RightShoulder
						{
							OFFSET -6.197824 13.665230 -4.064723
							CHANNELS 3 Zrotation Yrotation Xrotation
							JOINT RightArm
							{
								OFFSET -7.778132 -0.187073 -1.709282
								CHANNELS 3 Zrotation Yrotation Xrotation
								JOINT RightForeArm
								{
									OFFSET -21.954697 0.000000 -2.041093
									CHANNELS 3 Zrotation Yrotation Xrotation
									JOINT RightHand
									{
										OFFSET -22.992908 0.000000 -0.870901
										CHANNELS 3 Zrotation Yrotation Xrotation
										End Site
										{
											OFFSET 0.000000 0.000000 0.000000
										}
									}
								}
							}
						}
					}
				}
			}
		}
	}
}
MOTION
Frames: 9
Frame Time: 0.033333
-2.570862 81.733574 38.156887 179.985757 2.386708 -179.978790 -4.408450 -1.176322 10.764264 -0.756089 4.941469 -22.953472 7.759010 2.956877 28.070790 -1.377238 -10.880244 -8.605597 0.000000 0.000000 0.000000 -0.493661 -1.298431 9.436594 -5.947678 1.620335 -21.387819 -1.289595 4.584404 28.914998 10.841215 5.935810 -7.806046 0.000000 0.000000 0.000000 2.522384 1.223299 -0.845689 -6.202382 2.253796 0.123675 0.334565 -2.565459 2.882096 -0.048914 0.043896 0.013331 0.022304 -1.447081 3.572040 0.608940 -1.132387 -15.498601 0.000000 0.000000 0.000000 1.379943 -0.706162 1.013956 10.371250 2.896912 -3.346649 -10.674484 6.826297 -47.707321 1.324799 -32.161756 -4.282738 0.000000 0.000000 0.000000 -2.292878 0.438081 0.400042 5.158658 -12.593276 -3.926915 9.753514 -8.757317 -48.854581 -0.768463 28.364613 -3.571570 0.000000 0.000000 0.000000 
-2.540623 81.737274 38.136280 179.914901 2.509079 -179.930228 -4.394606 -1.307696 10.842268 -0.684752 4.651910 -22.883273 7.813619 2.493721 28.256797 -1.462677 -11.009996 -8.801858 0.000000 0.000000 0.000000 -0.533175 -1.258843 9.403828 -5.875870 1.375949 -21.429874 -1.320362 4.405375 29.030937 10.731279 5.835106 -7.791332 0.000000 0.000000 0.000000 2.452280 1.258373 -0.859524 -6.261679 2.255713 0.095268 0.349624 -2.563314 2.870446 0.012716 0.037358 0.042438 -0.025422 -1.494739 3.562456 0.646212 -1.261665 -15.481507 0.000000 0.000000 0.000000 1.315610 -0.664074 0.994246 10.378293 2.912601 -3.298006 -10.611740 6.766604 -47.708865 1.345152 -32.151695 -4.310531 0.000000 0.000000 0.000000 -2.330717 0.459903 0.424865 5.180160 -12.564883 -3.914092 9.799196 -8.721300 -48.957778 -0.762442 28.369023 -3.583151 0.000000 0.000000 0.000000 
-2.507425 81.736343 38.111195 179.975580 2.589347 -179.925201 -4.328290 -1.269477 10.853529 -0.644080 4.677944 -22.905424 7.793389 2.464603 28.265044 -1.459049 -11.027545 -8.802487 0.000000 0.000000 0.000000 -0.493147 -1.193917 9.401556 -5.809405 1.468470 -21.458918 -1.314796 4.359360 29.053999 10.639844 5.782440 -7.815847 0.000000 0.000000 0.000000 2.478955 1.258372 -0.831385 -6.249977 2.263232 0.078562 0.374793 -2.547099 2.862508 0.032775 0.062359 0.020188 -0.052659 -1.523371 3.540034 0.615324 -1.095394 -15.519657 0.000000 0.000000 0.000000 1.272931 -0.645584 1.021951 10.423232 2.827097 -3.374344 -10.505756 6.765492 -47.635488 1.259638 -32.117991 -4.222331 0.000000 0.000000 0.000000 -2.367715 0.490856 0.435878 5.137598 -12.564012 -3.972936 9.866346 -8.774622 -48.869252 -0.747064 28.400961 -3.564713 0.000000 0.000000 0.000000 
-2.476565 81.737633 38.086040 179.884670 2.424745 -179.890804 -4.406990 -1.390364 10.854297 -0.660218 4.639456 -22.922099 7.838280 2.482061 28.312307 -1.465216 -11.042163 -8.772498 0.000000 0.000000 0.000000 -0.490063 -1.310175 9.414209 -5.862742 1.374724 -21.473196 -1.316086 4.391675 29.138803 10.698816 5.880581 -7.845212 0.000000 0.000000 0.000000 2.425975 1.230177 -0.810763 -6.298896 2.232555 0.063320 0.342593 -2.565786 2.874785 0.000626 0.040274 0.023832 -0.008980 -1.450206 3.598028 0.577403 -1.081535 -15.471864 0.000000 0.000000 0.000000 1.338751 -0.688475 1.037857 10.436849 2.792041 -3.260947 -10.407565 6.746570 -47.598048 1.418138 -32.093085 -4.396271 0.000000 0.000000 0.000000 -2.304253 0.422106 0.415214 5.209444 -12.616679 -4.013679 9.922418 -8.844075 -48.732177 -0.826033 28.349930 -3.612633 0.000000 0.000000 0.000000 
-2.461403 81.737488 38.070705 179.954584 2.589882 -179.890572 -4.348512 -1.326392 10.857282 -0.638967 4.728280 -22.914998 7.798606 2.500739 28.333617 -1.452739 -11.055235 -8.777883 0.000000 0.000000 0.000000 -0.450773 -1.258745 9.405276 -5.809844 1.478906 -21.487838 -1.334093 4.395964 29.176929 10.585223 5.804544 -7.887306 0.000000 0.000000 0.000000 2.456228 1.233318 -0.799245 -6.281737 2.255112 0.045110 0.360852 -2.505170 2.877863 0.012423 0.101020 0.051966 -0.056552 -1.499460 3.517297 0.508288 -1.078239 -15.478833 0.000000 0.000000 0.000000 1.303116 -0.651755 1.044235 10.522769 2.836015 -3.410807 -10.237446 6.693091 -47.708356 1.225748 -32.033048 -4.139217 0.000000 0.000000 0.000000 -2.314642 0.383036 0.386094 5.201071 -12.622840 -4.093939 9.928476 -8.812068 -49.092756 -0.608010 28.362963 -3.353970 0.000000 0.000000 0.000000 
-2.450577 81.740128 38.059933 179.912743 2.637260 -179.878755 -4.384178 -1.351866 10.844109 -0.660684 4.782042 -22.915221 7.822257 2.565887 28.299089 -1.470327 -11.074712 -8.718033 0.000000 0.000000 0.000000 -0.431992 -1.247513 9.379238 -5.870494 1.486259 -21.503766 -1.342880 4.445810 29.236802 10.591871 5.854740 -7.910805 0.000000 0.000000 0.000000 2.455953 1.199429 -0.783292 -6.295692 2.220291 0.032307 0.290485 -2.526789 2.875443 0.061453 0.060486 0.047934 -0.022411 -1.469565 3.548652 0.452734 -1.072687 -15.447007 0.000000 0.000000 0.000000 1.344163 -0.541598 1.015754 10.492868 2.810412 -3.309404 -10.080020 6.778046 -47.540391 1.375366 -32.030374 -4.289809 0.000000 0.000000 0.000000 -2.297543 0.480048 0.424124 5.395469 -12.500696 -3.946788 9.860115 -8.843397 -49.109419 -0.760651 28.302127 -3.518836 0.000000 0.000000 0.000000 
-2.446957 81.740891 38.051651 179.978859 2.442033 -179.865669 -4.348594 -1.472164 10.817189 -0.628771 4.774276 -22.922868 7.821275 2.524996 28.352414 -1.482299 -11.112482 -8.723624 0.000000 0.000000 0.000000 -0.415143 -1.391632 9.376492 -5.847346 1.648754 -21.499385 -1.287019 4.391170 29.221124 10.327587 5.856881 -7.870869 0.000000 0.000000 0.000000 2.492073 1.133444 -0.774311 -6.252210 2.167235 0.029256 0.371832 -2.575468 2.881902 0.026861 0.018709 0.029119 -0.058543 -1.482724 3.533981 0.450398 -1.002924 -15.476932 0.000000 0.000000 0.000000 1.278178 -0.629078 1.050080 10.586914 2.895101 -3.323354 -9.939159 6.725277 -47.532338 1.225765 -31.977863 -4.081395 0.000000 0.000000 0.000000 -2.348452 0.431197 0.496421 5.393187 -12.470359 -4.021518 9.860637 -8.743166 -49.148440 -0.769575 28.356753 -3.503681 0.000000 0.000000 0.000000 
-2.443672 81.740494 38.044979 179.983189 2.705415 -179.883687 -4.324591 -1.399904 10.838266 -0.670144 4.908187 -22.904782 7.824598 2.607642 28.332861 -1.486117 -11.107538 -8.664068 0.000000 0.000000 0.000000 -0.392405 -1.350867 9.339693 -5.905014 1.741009 -21.496052 -1.259616 4.579733 29.262685 10.380840 5.707895 -7.939398 0.000000 0.000000 0.000000 2.496397 1.119548 -0.756570 -6.224366 2.183945 0.024243 0.375419 -2.515025 2.876044 0.023388 0.049079 0.011935 -0.052988 -1.470705 3.505624 0.409617 -1.018412 -15.490961 0.000000 0.000000 0.000000 1.311293 -0.596869 1.025212 10.693632 2.960306 -3.375217 -9.793503 6.798851 -47.427987 1.122612 -31.897181 -3.918152 0.000000 0.000000 0.000000 -2.343223 0.516704 0.439953 5.464451 -12.376137 -4.005273 9.866922 -8.854089 -49.124674 -0.788577 28.501923 -3.498655 0.000000 0.000000 0.000000 
-2.441820 81.739059 38.039101 179.978312 2.683078 -179.873633 -4.306300 -1.483505 10.830365 -0.700732 4.944519 -22.916758 7.863955 2.631807 28.361601 -1.503120 -11.109342 -8.608104 0.000000 0.000000 0.000000 -0.374168 -1.474326 9.307965 -5.926021 1.806556 -21.478554 -1.256283 4.631623 29.263136 10.358243 5.713064 -7.955525 0.000000 0.000000 0.000000 2.497737 1.081122 -0.756207 -6.197746 2.192811 0.018044 0.380904 -2.476379 2.893185 0.019879 0.069241 0.009119 -0.035476 -1.453770 3.532196 0.384509 -1.005164 -15.434663 0.000000 0.000000 0.000000 1.312705 -0.651233 1.076631 10.760657 2.897334 -3.314579 -9.653328 6.771289 -47.090739 1.302385 -31.865974 -3.964739 0.000000 0.000000 0.000000 -2.361495 0.487100 0.393804 5.534662 -12.341818 -3.983714 9.842111 -8.968172 -49.151899 -0.792307 28.686316 -3.456446 0.000000 0.000000 0.000000 
